<svg id="habit_hiking" xmlns="http://www.w3.org/2000/svg" width="64" height="64" viewBox="0 0 64 64">
  <path id="O" d="M32,64A32,32,0,1,0,0,32,32,32,0,0,0,32,64Z" fill="#e1cd8d"/>
  <path id="Path_2891" data-name="Path 2891" d="M47,37.321C47,41.757,47,45.564,47,50a1.92,1.92,0,0,1-2,2,1.808,1.808,0,0,1-2-2c0-6.107.018-12.114.05-18.221,0-.762-.131-1.051-.966-1a12.961,12.961,0,0,1-3.11-.087,4.824,4.824,0,0,1-3.4-2.2c-.1-.153-.146-.427-.366-.4-.265.039-.235.322-.269.532-.226,1.408-.785,2.724-1.135,4.1a4.022,4.022,0,0,0,1.278,4.092c.431.417.928.766,1.388,1.153a6.45,6.45,0,0,1,2.436,5q.055,3.2-.028,6.406A2.734,2.734,0,0,1,37.1,52.081a2.4,2.4,0,0,1-3.275-2.2C33.7,47.948,33.7,46,33.71,44.057a3.319,3.319,0,0,0-1.092-2.543c-1.87-1.808-3.669-3.69-5.559-5.478a3.785,3.785,0,0,1-1.123-4.086c.694-2.554,1.317-5.127,1.976-7.691.742-2.885,2.757-4.415,5.448-4.129a4.966,4.966,0,0,1,2.721,1.238,16.461,16.461,0,0,1,2.6,2.612c1.028,1.381,2.472,1.575,4.046,1.42.353-.035.265-.642.267-.9,0-.356,0-.519,0-.519a2,2,0,0,1,4,0C46.992,28.5,47,32.8,47,37.321Z" fill="#9b414b" fill-rule="evenodd"/>
  <path id="Path_2892" data-name="Path 2892" d="M25.059,17.616c1.138.331,1.412.849,1.123,1.963q-1.531,5.9-3.064,11.793a7.285,7.285,0,0,1-.394,1.159,1.312,1.312,0,0,1-1.535.826c-1.784-.387-3.562-.813-5.322-1.3-.815-.223-1.026-.821-.755-1.882.682-2.667,1.358-5.336,2.1-7.987a6.308,6.308,0,0,1,4.7-4.569A5.638,5.638,0,0,1,25.059,17.616Z" fill="#9b414b" fill-rule="evenodd"/>
  <path id="Path_2893" data-name="Path 2893" d="M24.5,37.479c1.42,1.444,2.671,2.7,3.9,3.977a1.113,1.113,0,0,1,.183,1.088c-.653,2.62-1.262,5.253-1.971,7.857a2.336,2.336,0,0,1-2.983,1.736,2.439,2.439,0,0,1-1.846-3.065C22.658,45.3,23.547,41.529,24.5,37.479Z" fill="#9b414b" fill-rule="evenodd"/>
  <path id="Path_2894" data-name="Path 2894" d="M40,13.509A4.541,4.541,0,0,1,35.5,18,4.607,4.607,0,0,1,31,13.48,4.708,4.708,0,0,1,35.486,9,4.609,4.609,0,0,1,40,13.509Z" fill="#9b414b" fill-rule="evenodd"/>
</svg>
