<?xml version="1.0" encoding="utf-8"?>
<!-- Generator: Adobe Illustrator 16.0.0, SVG Export Plug-In . SVG Version: 6.00 Build 0)  -->
<!DOCTYPE svg PUBLIC "-//W3C//DTD SVG 1.1//EN" "http://www.w3.org/Graphics/SVG/1.1/DTD/svg11.dtd">
<svg version="1.1" id="圖層_1" xmlns="http://www.w3.org/2000/svg" xmlns:xlink="http://www.w3.org/1999/xlink" x="0px" y="0px"
	 width="581px" height="64px" viewBox="0 0 581 64" enable-background="new 0 0 581 64" xml:space="preserve">
<g id="_">
	<path fill="#0E3150" d="M18,49c-1.104,0-2-0.896-2-2c0-9.552-4.449-14-14-14c-1.104,0-2-0.896-2-2s0.896-2,2-2
		c9.551,0,14-4.449,14-14c0-1.104,0.896-2,2-2s2,0.896,2,2c0,9.551,4.449,14,14,14c1.104,0,2,0.896,2,2s-0.896,2-2,2
		c-9.551,0-14,4.448-14,14C20,48.104,19.105,49,18,49z M11.802,31c2.749,1.375,4.823,3.45,6.198,6.198
		c1.375-2.748,3.45-4.823,6.198-6.198c-2.749-1.375-4.823-3.45-6.198-6.198C16.625,27.55,14.551,29.625,11.802,31z"/>
</g>
<g id="_2">
	<path fill="#0E3150" d="M563,49c-1.104,0-2-0.896-2-2c0-9.552-4.448-14-14-14c-1.104,0-2-0.896-2-2s0.896-2,2-2
		c9.552,0,14-4.449,14-14c0-1.104,0.896-2,2-2s2,0.896,2,2c0,9.551,4.448,14,14,14c1.104,0,2,0.896,2,2s-0.896,2-2,2
		c-9.552,0-14,4.448-14,14C565,48.104,564.105,49,563,49z M556.802,31c2.748,1.375,4.823,3.45,6.198,6.198
		c1.375-2.748,3.45-4.823,6.198-6.198c-2.748-1.375-4.823-3.45-6.198-6.198C561.625,27.55,559.55,29.625,556.802,31z"/>
</g>
<g enable-background="new    ">
	<path fill="#0E3150" d="M74.687,55.625L73.437,55c-0.75-1.333-1-2.875-0.75-4.625c-1.833,0.834-3.698,1.229-5.594,1.188
		c-1.896-0.041-3.552-0.416-4.969-1.125c-1.417-0.708-2.75-1.864-4-3.469c-1.25-1.604-2.25-3.51-3-5.719
		c-0.75-2.208-1.229-4.479-1.438-6.812c-0.208-2.333-0.229-4.771-0.062-7.312c0.167-2.541,0.75-5.156,1.75-7.844
		s2.479-5.114,4.438-7.281c1.958-2.166,3.739-3.479,5.344-3.938c1.604-0.458,3.364-0.583,5.281-0.375
		c1.917,0.209,3.458,0.792,4.625,1.75c1.167,0.959,1.708,2.021,1.625,3.188l-0.625,1.25c-0.583,0.5-1.333,0.709-2.25,0.625
		c-1.167-0.916-2.188-1.521-3.062-1.812c-0.875-0.291-2.104-0.219-3.688,0.219c-1.583,0.438-3.115,1.698-4.594,3.781
		c-1.479,2.084-2.469,4-2.969,5.75s-0.781,3.625-0.844,5.625s-0.042,4,0.062,6c0.104,2,0.448,3.834,1.031,5.5
		c0.583,1.667,1.604,3.271,3.062,4.812c1.458,1.542,3.01,2.209,4.656,2c1.646-0.208,3.344-0.771,5.094-1.688l-0.125-5.75
		c-1.083-0.166-2.24-0.208-3.469-0.125c-1.229,0.084-2.302-0.166-3.219-0.75c-0.5-0.583-0.708-1.333-0.625-2.25l0.625-1.25
		c1.542-0.666,3.146-0.875,4.812-0.625c1.667,0.25,3.25,0.354,4.75,0.312c1.5-0.041,2.917,0.188,4.25,0.688
		c0.5,0.584,0.708,1.334,0.625,2.25l-0.625,1.25c-0.667,0.5-1.417,0.75-2.25,0.75l0.25,14.562L76.937,55
		C76.354,55.5,75.604,55.708,74.687,55.625z"/>
	<path fill="#0E3150" d="M109.187,55.5l-1.25-0.625c-0.5-0.916-0.833-1.896-1-2.938c-0.167-1.041-0.333-2.125-0.5-3.25
		c-2,2.542-3.927,4.209-5.781,5c-1.854,0.792-3.677,1.042-5.469,0.75c-1.792-0.291-3.396-1.26-4.812-2.906
		c-1.417-1.646-2.333-3.364-2.75-5.156c-0.417-1.791-0.708-3.666-0.875-5.625c-0.167-1.958-0.208-4.979-0.125-9.062
		c0.083-1.333,0.458-2.5,1.125-3.5c0.667-0.583,1.458-0.833,2.375-0.75l1.25,0.625c0.5,0.667,0.708,1.459,0.625,2.375
		c-0.458,5-0.615,8.334-0.469,10c0.146,1.667,0.406,3.188,0.781,4.562s1.021,2.542,1.938,3.5c0.917,0.959,2.052,1.25,3.406,0.875
		c1.354-0.375,2.739-1.521,4.156-3.438c1.417-1.916,2.333-4.354,2.75-7.312c0.417-2.958,1.042-5.812,1.875-8.562
		c0.583-0.5,1.333-0.708,2.25-0.625l1.25,0.625c0.667,1.25,0.875,2.709,0.625,4.375c0.083,7.25,0.292,11.803,0.625,13.656
		c0.333,1.854,0.625,3.698,0.875,5.531l-0.625,1.25C110.854,55.375,110.104,55.583,109.187,55.5z"/>
	<path fill="#0E3150" d="M131.125,54.875c-1.5-0.25-2.938-0.688-4.312-1.312S124,51.761,122.5,50.031
		c-1.5-1.729-2.542-3.969-3.125-6.719c-0.583-2.75-0.833-5.271-0.75-7.562c0.083-2.291,0.354-4.229,0.812-5.812
		c0.458-1.583,1.292-3.021,2.5-4.312c1.208-1.291,2.604-2.312,4.188-3.062c1.583-0.75,3.239-1.041,4.969-0.875
		c1.729,0.167,3.208,0.479,4.438,0.938c1.229,0.459,2.729,1.709,4.5,3.75c1.771,2.042,2.854,4.334,3.25,6.875
		c0.396,2.542,0.594,4.334,0.594,5.375c0,1.042-0.302,1.656-0.906,1.844c-0.604,0.188-6.927,0.428-18.969,0.719
		c0.25,1.334,0.583,2.542,1,3.625c0.417,1.084,1.062,2.021,1.938,2.812c0.875,0.792,1.823,1.406,2.844,1.844
		c1.021,0.438,2.198,0.615,3.531,0.531c1.333-0.083,2.583-0.51,3.75-1.281c1.167-0.771,2.417-1.322,3.75-1.656l1.25,0.625
		c0.5,0.667,0.708,1.479,0.625,2.438l-0.625,1.25c-1.917,1.5-3.729,2.459-5.438,2.875C134.916,54.667,133.083,54.875,131.125,54.875
		z M138.812,35.688c-0.083-1.666-0.323-3.062-0.719-4.188c-0.396-1.125-1.031-2.083-1.906-2.875
		c-0.875-0.791-1.938-1.375-3.188-1.75s-2.479-0.438-3.688-0.188c-1.208,0.25-2.271,0.854-3.188,1.812
		c-0.917,0.959-1.573,2.021-1.969,3.188c-0.396,1.167-0.656,2.709-0.781,4.625L138.812,35.688z"/>
	<path fill="#0E3150" d="M161,55.25c-1.083-0.167-2.104-0.541-3.062-1.125c-0.958-0.583-1.938-1.083-2.938-1.5
		c-0.5-0.666-0.792-1.416-0.875-2.25c0.083-0.708,0.333-1.312,0.75-1.812c0.583-0.5,1.333-0.708,2.25-0.625
		c1.083,0.584,2.125,1.198,3.125,1.844c1,0.646,2.323,0.834,3.969,0.562c1.646-0.271,2.969-0.864,3.969-1.781
		c1-0.916,1.375-1.896,1.125-2.938c-0.25-1.041-1.146-1.75-2.688-2.125c-1.542-0.375-3.365-0.875-5.469-1.5
		c-2.104-0.625-3.802-1.604-5.094-2.938c-1.292-1.333-2.167-2.646-2.625-3.938c-0.458-1.291-0.625-2.583-0.5-3.875
		c0.125-1.291,0.458-2.438,1-3.438c0.542-1,1.458-2.125,2.75-3.375c1.292-1.25,2.677-2.146,4.156-2.688
		c1.479-0.541,3.01-0.688,4.594-0.438c1.583,0.25,3,0.917,4.25,2c1.25,1.084,1.792,2.167,1.625,3.25l-0.625,1.25
		c-0.583,0.5-1.333,0.709-2.25,0.625c-2.125-1.583-3.781-2.281-4.969-2.094s-2.25,0.667-3.188,1.438
		c-0.938,0.771-1.667,1.875-2.188,3.312c-0.521,1.438-0.333,2.656,0.562,3.656c0.896,1,1.823,1.74,2.781,2.219
		c0.958,0.479,2.51,0.886,4.656,1.219c2.146,0.334,3.969,1.104,5.469,2.312c1.5,1.209,2.375,2.5,2.625,3.875s0.229,2.74-0.062,4.094
		c-0.292,1.354-1.062,2.615-2.312,3.781c-1.25,1.167-2.833,1.979-4.75,2.438C165.145,55.146,163.125,55.333,161,55.25z"/>
	<path fill="#0E3150" d="M196.687,55.125c-1.458-0.166-2.938-1.031-4.438-2.594s-2.458-3.697-2.875-6.406
		c-0.417-2.708-0.75-7.396-1-14.062l-4.625,0.25l-1.25-0.625c-0.583-0.666-0.833-1.458-0.75-2.375l0.625-1.25
		c0.833-0.583,1.812-0.854,2.938-0.812c1.125,0.042,2.229,0.021,3.312-0.062c-0.167-5.083,0.042-8.396,0.625-9.938
		c0.583-0.5,1.333-0.708,2.25-0.625l1.25,0.625c0.583,0.834,0.792,1.812,0.625,2.938l0.125,6.75l10.188-0.25l1.25,0.625
		c0.5,0.584,0.708,1.334,0.625,2.25l-0.625,1.25c-1.75,0.584-3.646,0.854-5.688,0.812c-2.042-0.041-4.042,0.062-6,0.312
		c0.25,6.084,0.479,10.125,0.688,12.125c0.208,2,0.614,3.521,1.219,4.562c0.604,1.042,1.823,1.396,3.656,1.062
		c1.833-0.333,3.708-0.833,5.625-1.5l1.25,0.625c0.5,0.584,0.708,1.354,0.625,2.312l-0.875,1.5c-1.25,0.917-2.604,1.584-4.062,2
		C199.916,55.041,198.354,55.208,196.687,55.125z"/>
	<path fill="#0E3150" d="M218.375,54.375l-1.25-0.625c-0.667-1.833-1-3.844-1-6.031S215.833,32.959,215.25,10
		c0.083-0.666,0.333-1.25,0.75-1.75c0.583-0.5,1.333-0.708,2.25-0.625l1.25,0.625l0.625,1.25l0.25,16.562
		c1.5-0.5,2.938-0.812,4.312-0.938s2.739-0.125,4.094,0c1.354,0.125,2.531,0.479,3.531,1.062c1,0.584,2.125,1.5,3.375,2.75
		s2.062,2.542,2.438,3.875c0.375,1.334,0.677,2.886,0.906,4.656c0.229,1.771,0.188,3.709-0.125,5.812
		c-0.312,2.104-1.344,4.062-3.094,5.875s-3.656,2.948-5.719,3.406c-2.062,0.459-4.261,0.604-6.594,0.438l-2.375-0.5
		c0,0.5-0.167,0.917-0.5,1.25C220.041,54.25,219.291,54.459,218.375,54.375z M231.562,46.812c1.5-1.5,2.375-3.01,2.625-4.531
		c0.25-1.521,0.25-3.188,0-5s-0.688-3.177-1.312-4.094c-0.625-0.916-1.615-1.75-2.969-2.5c-1.354-0.75-2.802-1.021-4.344-0.812
		c-1.542,0.209-3.146,0.75-4.812,1.625L221,47.312c1,0.417,2.083,0.667,3.25,0.75c1.167,0.084,2.479-0.021,3.938-0.312
		C229.645,47.459,230.77,47.146,231.562,46.812z"/>
	<path fill="#0E3150" d="M256.625,54.5c-1.167-0.083-2.312-0.333-3.438-0.75c-1.125-0.416-2.292-1.364-3.5-2.844
		c-1.208-1.479-2.062-3.156-2.562-5.031s-0.708-3.854-0.625-5.938c0.083-2.083,0.385-4.177,0.906-6.281c0.521-2.104,1.521-4,3-5.688
		c1.479-1.688,3.198-2.969,5.156-3.844c1.958-0.875,4.052-1.166,6.281-0.875c2.229,0.292,4.281,1.417,6.156,3.375
		c1.875,1.959,2.938,3.646,3.188,5.062c0.25,1.417,0.458,2.854,0.625,4.312c0.167,1.459,0.167,3.188,0,5.188
		c-0.167,2-0.562,3.834-1.188,5.5c-0.625,1.667-1.625,3.198-3,4.594c-1.375,1.396-3,2.323-4.875,2.781
		C260.875,54.521,258.833,54.667,256.625,54.5z M263.187,48.562c1.417-0.833,2.375-1.958,2.875-3.375
		c0.5-1.416,0.812-2.854,0.938-4.312c0.125-1.458,0.125-3.062,0-4.812s-0.667-3.396-1.625-4.938
		c-0.958-1.541-1.979-2.438-3.062-2.688c-1.083-0.25-2.365-0.208-3.844,0.125c-1.479,0.334-2.906,1.334-4.281,3
		c-1.375,1.667-2.208,3.334-2.5,5c-0.292,1.667-0.396,3.209-0.312,4.625c0.083,1.417,0.375,2.928,0.875,4.531
		c0.5,1.604,1.458,2.688,2.875,3.25c1.417,0.562,2.854,0.771,4.312,0.625C260.895,49.448,262.145,49.104,263.187,48.562z"/>
	<path fill="#0E3150" d="M288.625,54.5c-1.167-0.083-2.312-0.333-3.438-0.75c-1.125-0.416-2.292-1.364-3.5-2.844
		c-1.208-1.479-2.062-3.156-2.562-5.031s-0.708-3.854-0.625-5.938c0.083-2.083,0.385-4.177,0.906-6.281c0.521-2.104,1.521-4,3-5.688
		c1.479-1.688,3.198-2.969,5.156-3.844c1.958-0.875,4.051-1.166,6.282-0.875c2.229,0.292,4.281,1.417,6.156,3.375
		c1.875,1.959,2.938,3.646,3.188,5.062c0.25,1.417,0.457,2.854,0.625,4.312c0.166,1.459,0.166,3.188,0,5.188
		c-0.168,2-0.562,3.834-1.188,5.5c-0.625,1.667-1.625,3.198-3,4.594c-1.375,1.396-3,2.323-4.875,2.781
		C292.875,54.521,290.833,54.667,288.625,54.5z M295.188,48.562c1.416-0.833,2.375-1.958,2.875-3.375
		c0.5-1.416,0.812-2.854,0.938-4.312c0.125-1.458,0.125-3.062,0-4.812s-0.668-3.396-1.625-4.938
		c-0.959-1.541-1.98-2.438-3.062-2.688c-1.084-0.25-2.365-0.208-3.844,0.125c-1.479,0.334-2.906,1.334-4.281,3
		c-1.375,1.667-2.208,3.334-2.5,5c-0.292,1.667-0.396,3.209-0.312,4.625c0.083,1.417,0.375,2.928,0.875,4.531
		c0.5,1.604,1.458,2.688,2.875,3.25c1.417,0.562,2.854,0.771,4.313,0.625C292.895,49.448,294.145,49.104,295.188,48.562z"/>
	<path fill="#0E3150" d="M332.688,54.75l-1.25-0.625c-1.75-2.666-3.5-5.322-5.25-7.969c-1.75-2.646-3.562-5.26-5.438-7.844
		l-3.625,3.75l0.25,10.312l-0.625,1.25c-0.584,0.5-1.334,0.709-2.25,0.625l-1.25-0.625c-0.584-0.916-0.875-1.969-0.875-3.156
		s-0.25-14.844-0.75-40.969c0.082-0.666,0.332-1.25,0.75-1.75c0.582-0.5,1.332-0.708,2.25-0.625l1.25,0.625L316.5,9l0.5,25.562
		l9.438-11c1-1.083,2.25-1.583,3.75-1.5l1.25,0.625c0.5,0.584,0.707,1.334,0.625,2.25l-0.625,1.25l-7.5,8.125
		c5.416,8.084,8.645,12.781,9.688,14.094c1.041,1.312,1.688,2.803,1.938,4.469l-0.625,1.25
		C334.354,54.625,333.604,54.834,332.688,54.75z"/>
	<path fill="#0E3150" d="M351.563,31.062c-1.543,0.209-2.375-0.208-2.5-1.25c-0.125-1.041-0.312-7.104-0.562-18.188
		c-0.375-1.166,0.125-1.938,1.5-2.312c1.791-0.708,3.844-1.677,6.156-2.906c2.312-1.229,4.738-2.031,7.281-2.406l1.188,0.75
		c0.541,0.667,0.75,1.459,0.625,2.375l-0.688,1.25c-1.959,0.459-3.824,1.156-5.594,2.094c-1.771,0.938-3.574,1.803-5.406,2.594
		l0.5,12.375l11.188-2.062l-2.438-3.438c-0.459-0.666-0.625-1.458-0.5-2.375l0.75-1.312c0.707-0.541,1.541-0.688,2.5-0.438
		l1.25,0.688c1.291,2.042,2.541,4.042,3.75,6c1.207,1.959,2.041,4.062,2.5,6.312l-0.688,1.25c-0.709,0.459-1.521,0.625-2.438,0.5
		l-1.188-0.75l-1-2.062L351.563,31.062z M358.75,59.25c-2.334,0.125-3.562-0.448-3.688-1.719c-0.125-1.271-0.521-8.427-1.188-21.469
		c-0.293-1.875,0.238-2.896,1.594-3.062c1.354-0.166,12.697-0.271,34.031-0.312c1.125,0.209,1.75,0.834,1.875,1.875
		c-0.5,13.292-0.824,20.646-0.969,22.062c-0.146,1.416-1.387,2-3.719,1.75L358.75,59.25z M369.563,43.062l-0.375-5.25l-10.375,0.125
		l0.25,5L369.563,43.062z M370.063,53.75l-0.375-5.812L359.5,48l0.188,6L370.063,53.75z M386.438,42.938v-5.375h-12.375l0.375,5.375
		H386.438z M390.75,29.688l-4.938-3.875c-0.5-0.583-0.709-1.333-0.625-2.25l0.625-1.25c0.582-0.5,1.354-0.708,2.312-0.625
		c0.916,0.417,1.75,0.959,2.5,1.625c0.666-1.833,1.104-3.739,1.312-5.719c0.207-1.979,0.354-4.01,0.438-6.094h-7.938
		c-0.584,2.584-1.209,5.136-1.875,7.656c-0.668,2.521-1.75,4.865-3.25,7.031c-0.668,0.584-1.459,0.834-2.375,0.75l-1.25-0.625
		c-0.5-0.583-0.709-1.333-0.625-2.25c1.166-1.833,2.082-3.802,2.75-5.906c0.666-2.104,1.207-4.239,1.625-6.406
		c-1.668,0.25-3.168,0-4.5-0.75c-0.5-0.583-0.709-1.333-0.625-2.25l0.625-1.25c1.332-0.5,2.77-0.729,4.312-0.688
		c1.541,0.042,7-0.021,16.375-0.188c1.832,0.209,2.457,1.417,1.875,3.625c-0.25,3.167-0.584,6.323-1,9.469
		c-0.418,3.146-1.5,6.011-3.25,8.594C392.416,29.854,391.582,30.312,390.75,29.688z M385.688,53.375l0.375-5.562h-11.5l0.25,5.812
		L385.688,53.375z"/>
	<path fill="#0E3150" d="M413.25,20.188c-0.668-0.083-1.25-0.333-1.75-0.75c-0.5-0.583-0.709-1.354-0.625-2.312l0.625-1.25
		c1.832-0.833,3.832-1.208,6-1.125l37.625-0.125c1.082,0,2.082,0.292,3,0.875c0.5,0.584,0.707,1.354,0.625,2.312l-0.625,1.25
		c-0.668,0.5-1.459,0.75-2.375,0.75L413.25,20.188z M449.438,59.625l-28.25-0.375c-1.334-0.167-2.115-0.938-2.344-2.312
		c-0.23-1.375-0.365-3.197-0.406-5.469c-0.043-2.271-0.23-4.781-0.562-7.531c0.125-2.166,0.77-3.291,1.938-3.375
		c1.166-0.083,6.27-0.125,15.312-0.125c9.041,0,14.447,0.209,16.219,0.625c1.77,0.417,2.697,1.125,2.781,2.125
		c-0.084,8.459-0.271,13.375-0.562,14.75C453.27,59.312,451.895,59.875,449.438,59.625z M448.938,54.625l0.25-8.812l-26.25-0.375
		l0.75,8.938L448.938,54.625z M443.438,10.875l-17.875-0.25l-1.625-0.75c-0.5-0.583-0.709-1.333-0.625-2.25l0.625-1.25
		c1.25-0.75,2.666-1.083,4.25-1c7.416,0.25,11.854,0.375,13.312,0.375c1.457,0,2.854,0.25,4.188,0.75
		c0.582,0.667,0.791,1.5,0.625,2.5l-0.625,1.25C445.104,10.75,444.354,10.959,443.438,10.875z M445.438,28.312l-19.5-0.375
		c-0.668-0.083-1.25-0.333-1.75-0.75c-0.5-0.583-0.709-1.333-0.625-2.25l0.625-1.25l1.25-0.625
		c10.416,0.167,16.562,0.25,18.438,0.25s3.604,0.25,5.188,0.75c0.5,0.584,0.707,1.334,0.625,2.25l-0.625,1.25
		C448.063,28.229,446.854,28.479,445.438,28.312z M426.188,36.812c-0.668-0.083-1.25-0.333-1.75-0.75
		c-0.5-0.583-0.709-1.333-0.625-2.25l0.625-1.25l1.25-0.625l21.25-0.375c0.666,0.084,1.25,0.334,1.75,0.75
		c0.5,0.584,0.707,1.334,0.625,2.25l-0.625,1.25c-0.668,0.417-1.375,0.667-2.125,0.75L426.188,36.812z"/>
	<path fill="#0E3150" d="M475.5,41c-2,0.125-3.062-0.312-3.188-1.312S472,30.667,471.75,15.625c0.041-1.791,0.385-2.822,1.031-3.094
		c0.645-0.271,6.301-0.114,16.969,0.469c1.582-0.041,2.406,0.521,2.469,1.688c0.062,1.167,0.082,5.334,0.062,12.5
		c-0.021,7.167-0.074,11.25-0.156,12.25c-0.084,1-1.062,1.417-2.938,1.25L475.5,41z M487.063,35.812v-17.75l-10.188-0.25v18H487.063
		z M509.688,58.75c-2.084,0-4.062-0.209-5.938-0.625c-1.875-0.417-3.668-1.5-5.375-3.25c-1.709-1.75-2.75-3.989-3.125-6.719
		c-0.375-2.729-0.512-9.625-0.406-20.688c0.104-11.062,0.135-17.208,0.094-18.438c-0.043-1.229,0.75-1.822,2.375-1.781h24.438
		c1.791-0.291,2.832,0.375,3.125,2l0.375,20.438c0.125,1.5-0.178,2.271-0.906,2.312c-0.73,0.042-8.949,0.188-24.656,0.438
		c0.082,6.917,0.166,11.49,0.25,13.719c0.082,2.229,0.875,4.011,2.375,5.344c1.5,1.334,3.041,2.062,4.625,2.188
		c1.582,0.125,3.145,0.125,4.688,0c1.541-0.125,3.094-0.208,4.656-0.25c1.562-0.041,3.135-0.104,4.719-0.188
		c-0.334-1.416-0.459-2.708-0.375-3.875l0.625-1.25c0.582-0.541,1.332-0.771,2.25-0.688l1.25,0.688c0.5,1.167,0.832,2.375,1,3.625
		c0.166,1.25,0.291,2.521,0.375,3.812c0.082,1.291-0.605,2.083-2.062,2.375c-1.459,0.291-3.553,0.438-6.281,0.438
		C515.051,58.375,512.354,58.5,509.688,58.75z M507.688,27.438l-0.25-15.312h-7.375l-0.25,15.312H507.688z M520.25,27.312L520,12
		h-7.688l0.25,15.438L520.25,27.312z"/>
</g>
<g id="_3">
	<path fill="#0E3150" d="M108.321,24.915c-1.319-0.494-2.453-1.384-3.246-2.548c-0.822-1.162-1.573-2.371-2.25-3.623
		c-0.542-0.882-0.885-1.872-1.006-2.9c0.041-0.862,0.475-1.658,1.177-2.161c0.86-0.716,2.073-0.826,3.05-0.277
		c1.354,0.65,2.446,1.745,3.092,3.103c1.222-1.813,2.566-2.598,4.034-2.354c1.073,0.043,2.085,0.513,2.811,1.305
		c0.41,0.715,0.423,1.591,0.035,2.318c-0.414,0.968-0.989,1.859-1.702,2.634c-0.906,0.98-1.885,1.891-2.928,2.724
		C110.503,23.939,109.457,24.546,108.321,24.915z"/>
</g>
</svg>
